<svg xmlns="http://www.w3.org/2000/svg" viewBox="0 0 176.6 73.28"><defs><style>.cls-1{fill:#231f20;}</style></defs><title>Asset 1</title><g id="Layer_2" data-name="Layer 2"><g id="Layer_1-2" data-name="Layer 1"><g id="Layer_2-2" data-name="Layer 2"><g id="Layer_1-2-2" data-name="Layer 1-2"><path class="cls-1" d="M60.7,36.1l3.8-5.2,6.1,1.7.5,2.4s13.8,7.8,20.2,9.2c9,1.9,22.3,1.1,22.3,1.1L136,35.9l4.3-7-5.7-5.3c-2.7-3.6-6.1-19.9-6.1-19.9l2.2-.8.1-2.5,2.3-.4s12.3,6.9,15.4,13.1c.8,1.7,3,7.9,2.6,10.9l-2,4.7L162.4,35l4,6s-1.9,4.8-4.9,7.3-10.8,5.5-10.8,5.5l.3,2.8s9.6-1.6,14.1-1.4a30.36,30.36,0,0,1,7.9,1.3l3.6,5.3s-.4,1.8-4.3,2.5l-4.8-1.8c-2.4-.9-14.4-.4-14.4-.4l-10.8,3.4s-7.9-1-13.1-1.3a51.39,51.39,0,0,1-9.5,5.8c-4.5,1.9-11.9,3.9-23.4,3.1S65,62.9,65,62.9s-3.4,2.9-5.6,3.5c-5.1,1.3-13.9-.7-13.9-.7s-11.7-7.7-14.7-9-15.1-.2-15.1-.2L3.1,60.9,0,57.9s11.9-9.5,12.6-9.5,10.9.2,16.4-.7l7.9-1.8,5.2,4.5S54.9,38.8,56.3,37.9A21.38,21.38,0,0,1,60.7,36.1Z"/></g></g></g></g></svg>