<svg id="Layer_1" data-name="Layer 1" xmlns="http://www.w3.org/2000/svg" viewBox="0 0 600 600"><defs><style>.cls-1{fill:#006a50;}</style></defs><title>White_Rabbit_Web_Icons</title><path class="cls-1" d="M70.27,433.66l78.24-41.17L165,304.74l61.49-124,28.23,2.3-41.62,74.77,4.18,35.86L294,156.77l41.59-14.1,14.5,9.93L273.34,269.31,285.91,296,391.68,138.5l38.92,5.36,13.34,24L333.62,280.79l142-72L511,276.68l-29,81.25L347,325.06l3.42,18.31,89.27,31.33,17.16,30.92-34.89,8.88-62-13.51-43.36-30.88-31.78.92L295,382.1l64.47,50.56,8.76,19.84-50.75,5.7-86.95-79.78-21.75,5.33L274,448.64s-34.35,19.06-40.83,11.43-66.36-50.78-66.36-50.78L88.2,441.68Z"/></svg>