<svg id="Layer_1" data-name="Layer 1" xmlns="http://www.w3.org/2000/svg" viewBox="0 0 600 600"><defs><style>.cls-1{fill:#231f20;}.cls-2{fill:#bea692;}.cls-3{fill:#a7bb61;}.cls-4{fill:#859552;}</style></defs><title>White_Rabbit_Web_Icons</title><polygon class="cls-1" points="370 242.99 371.24 57.97 391.37 60.4 380.04 237.92 370 242.99"/><path class="cls-2" d="M276.92,185.93c1.9,5.17,3.27,9.29,3.73,11.2,1.79,7.35-24.53,53-34.78,56.36-3.28,1.08-10.4,1.11-18.56.64,0,0,37.69,260.53,37.69,260.87l120.39,4.35a9.62,9.62,0,0,0,9.93-9L429.19,180Z"/><path class="cls-3" d="M221.27,211.7,222.66,198a9.64,9.64,0,0,1,8.86-8.64l45.4-3.38c-5.39-14.65-15.06-37.85-20.81-44.19-6.66-7.35-44.62-8-55.38-8a9.41,9.41,0,0,0-5.22,1.55L158.86,159.1c-2.54,10.49-5.21,53.65-2.07,58,2.6,3.58,22.12,23.71,28.8,30.57a9.21,9.21,0,0,0,5.45,2.74c6.75.92,22.91,3,36.27,3.75l-6-40A9.55,9.55,0,0,1,221.27,211.7Z"/><path class="cls-4" d="M245.87,253.49c10.25-3.4,36.57-49,34.78-56.36-.46-1.91-1.83-6-3.73-11.2l-45.4,3.38a9.64,9.64,0,0,0-8.86,8.64l-1.39,13.75a9.55,9.55,0,0,0,.06,2.39l6,40C235.47,254.6,242.59,254.57,245.87,253.49Z"/></svg>