<svg id="Layer_1" data-name="Layer 1" xmlns="http://www.w3.org/2000/svg" viewBox="0 0 600 600"><defs><style>.cls-1{fill:#d7c6bd;}.cls-2{fill:#231f20;}.cls-3{fill:#fffef9;}.cls-4{fill:#bea692;}.cls-5{fill:#3a2e32;}</style></defs><title>White_Rabbit_Web_Icons</title><path class="cls-1" d="M130.66,337.75l-17.77-7.39-7-13.6S78.57,309,70.29,302s-17.1-70.14-11.77-84.19,113.3-95.25,127.35-89.92,109.91,34,117.35,38.11,26.16,58.14,26.16,58.14-20.11,49.6-25.88,51.27-28.05,11.21-28.05,11.21L292.28,410l-104.8,27.1s-4.56-4.94-10.78-15.66S130.66,337.75,130.66,337.75Z"/><path class="cls-2" d="M376.23,380.12,368.52,371l-7.6-6.24s-5.25-15.31-7.83-21.53,21.17-40.69,28.11-46.92,76.51-19.75,85.16-16.27c59.35,23.87,56.81,46.6,56.81,56.83s-5,37.07-5,37.07S493,395.58,489.32,394.86s-16.85,2.85-16.85,2.85l-30.42,65.91-62.73-12.53a60.77,60.77,0,0,1-1.49-11.7C377.45,431.71,376.23,380.12,376.23,380.12Z"/><path class="cls-3" d="M190.5,177.94l-3.7-1.51a3.81,3.81,0,0,0-.11-2.9,3.76,3.76,0,0,0-2-2.09,4.06,4.06,0,0,0-5,2.16L176,172.14a7.82,7.82,0,0,1,14.52,5.8Z"/><path class="cls-3" d="M153.52,228.34a7.26,7.26,0,1,1,13.87-4l-4,.62a3.26,3.26,0,0,0-1.53-2.16,3.36,3.36,0,0,0-2.62-.48,3.52,3.52,0,0,0-2.09,4.45Z"/><path class="cls-3" d="M231.71,230.54a9.88,9.88,0,0,1-1.47-8.19,8.32,8.32,0,0,1,4.41-5.58,7.73,7.73,0,0,1,8.28,1.53,6.65,6.65,0,0,1,2.16,7.12l-3.78-1.29a2.86,2.86,0,0,0-1.05-2.85,3.83,3.83,0,0,0-3.91-.89,4.38,4.38,0,0,0-2.23,3,5.86,5.86,0,0,0,.82,4.83Z"/><path class="cls-3" d="M97.05,284.47a9.66,9.66,0,1,1,15.64-11.32l-3.33,2.22a6,6,0,0,0-8-1.44,5.69,5.69,0,0,0-2.16,3.81,5.63,5.63,0,0,0,1,4.26Z"/><path class="cls-3" d="M286.69,195.59l-3.94-.66a9.73,9.73,0,0,0-.69-5.51,2.69,2.69,0,0,0-2.36,1.21l-3.46-2a6.64,6.64,0,0,1,7.9-2.81l.69.26.36.65A13.8,13.8,0,0,1,286.69,195.59Z"/><path class="cls-3" d="M189.57,282.18a6.54,6.54,0,1,1,12-1.62l-3.83-1.14a2.52,2.52,0,0,0-4.71-1.78,2.55,2.55,0,0,0,0,2.42Z"/><path class="cls-3" d="M101.64,225.59c-1.37-4.23-1-9.8,3-12.74a7.58,7.58,0,0,1,8.32-.06,5.71,5.71,0,0,1,2.9,5.92l-3.94-.7a1.89,1.89,0,0,0-1.07-1.82,3.66,3.66,0,0,0-3.84-.12c-2.35,1.74-2.46,5.52-1.57,8.29Z"/><path class="cls-3" d="M383.92,352.27c-1.85-3.18-3.36-6.59-1.89-10,1.14-2.59,4.28-3.48,6.66-2.86a4,4,0,0,1,3.2,4.31l-4-.4a2.43,2.43,0,0,0-1.21-.05,1.35,1.35,0,0,0-1,.61c-.75,1.73.37,4.06,1.69,6.33Z"/><path class="cls-3" d="M433.14,311l-3.26-2.33a3.09,3.09,0,0,0-2-4.42,2.89,2.89,0,0,0-2.35,1.33,2.78,2.78,0,0,0-.4,2.68L421.5,310a6.68,6.68,0,1,1,11.64,1Z"/><path class="cls-3" d="M430.51,341.85a3.62,3.62,0,0,0-6.95-.51L419.81,340a7.61,7.61,0,0,1,14.61,1.08Z"/><path class="cls-3" d="M483.46,344.78l-3.14-2.49a1.82,1.82,0,0,0,.17-1.76,4,4,0,0,0-2.63-2.46c-2.51-.58-5.38.78-7.84,2.19l-2-3.47c3.13-1.8,6.86-3.5,10.72-2.62a8,8,0,0,1,5.51,5A5.75,5.75,0,0,1,483.46,344.78Z"/><path class="cls-3" d="M464.62,376.31l-4-.32a2.82,2.82,0,0,0-.79-2,2.74,2.74,0,0,0-2-.95h0a3,3,0,0,0-2.75,3l-4,.32a7,7,0,0,1,6.74-7.3h0a7,7,0,0,1,6.74,7.31Z"/><path class="cls-3" d="M287.57,252.71l-2.24-3.31a5.45,5.45,0,0,0-5.85-9.19l-2.05-3.44a9.45,9.45,0,0,1,10.14,15.94Z"/><path class="cls-4" d="M246.83,311.51l-35.49-10.14-20.28,25.35-38-10.14-21.94,21.95c4.24,7.78,39.77,72.84,45.61,82.92,6.22,10.72,10.78,15.66,10.78,15.66L292.28,410l-16-117.14Z"/><path class="cls-5" d="M457.26,392.64l-22.82,10.14-15.21-15.21L399,397.71,381.2,380l-4.9,3.27c.27,11.23,1.2,49.61,1.53,56.16a60.77,60.77,0,0,0,1.49,11.7l62.73,12.53,27.22-59Z"/></svg>