<svg id="Layer_1" data-name="Layer 1" xmlns="http://www.w3.org/2000/svg" viewBox="0 0 663 600"><defs><style>.cls-1{fill:#231f20;}.cls-2{fill:#a7bb61;}.cls-3{fill:#98a851;}.cls-4{fill:#d7c6bd;}.cls-5{fill:#006a50;}.cls-6{fill:#fffef9;}</style></defs><title>White_Rabbit_Web_Icons</title><path class="cls-1" d="M567.52,314.08s-7.38-2.54-18.86-6.38L492.12,336,437.19,348.8l-101.13-44-.17-28.5C271.64,280.42,195,285.9,195,285.9L52.37,353.64l-3.56,24.95s160.43,64.18,192.52,67.74,189,3.57,189,3.57l196.08-57,7.13-28.52Z"/><path class="cls-2" d="M548.66,307.7l19-9.5L562,265.56l-23.44-59-78.13-43.66-125,46,.39,67.38c39.44-2.56,74.21-4.62,83.7-4.62C438.44,271.64,513.2,295.85,548.66,307.7Z"/><path class="cls-3" d="M437.19,348.8,492.12,336l56.54-28.25c-35.46-11.85-110.22-36.06-129.07-36.06-9.49,0-44.26,2.06-83.7,4.62l.17,28.5Z"/><path class="cls-4" d="M309.85,230.2c2.35,15.53.76,78.41-4.35,84.27s-49.14,43.69-49.14,43.69-70.12,4-84.54-2.21S125,280.31,128.55,269.89s30.23-65.7,42.58-77.16,85.37-4.21,85.37-4.21Z"/><path class="cls-5" d="M128.22,175.91s-34.41-5.09-52.5,2-52.87,48.44-52.87,48.44l12,6.91,66.12-2.67Z"/><path class="cls-6" d="M418.52,257.49a10.76,10.76,0,0,1,4.13-11.39l2.3,3.27a6.76,6.76,0,0,0-2.56,7.08Z"/><path class="cls-6" d="M444,274.68,442.3,271a3.87,3.87,0,0,0,1.55-5.22l3.37-2.16a7.84,7.84,0,0,1-3.27,11Z"/><path class="cls-6" d="M423.11,287.63a13.76,13.76,0,0,1,1-13l3.34,2.2a9.66,9.66,0,0,0-.69,9.12Z"/><path class="cls-6" d="M476.66,270.16l-2.8-2.85a8.77,8.77,0,0,0,2.43-7.51l3.94-.67A12.69,12.69,0,0,1,476.66,270.16Z"/><path class="cls-6" d="M487.51,291.74l-3.63-1.67a7.41,7.41,0,0,0,0-6.13l3.64-1.67A11.46,11.46,0,0,1,487.51,291.74Z"/><path class="cls-6" d="M402.56,275.35A13.2,13.2,0,0,1,400,264.18l3.9.9a9.26,9.26,0,0,0,1.78,7.76Z"/><path class="cls-6" d="M458.93,251.75a10.32,10.32,0,0,1,2.48-10.42l2.81,2.85a6.31,6.31,0,0,0-1.5,6.3Z"/><path class="cls-6" d="M500.87,273l-3.7-1.53a14.81,14.81,0,0,0,.58-9.63l3.86-1.07A18.88,18.88,0,0,1,500.87,273Z"/><path class="cls-6" d="M497.06,305.66l-2.93-2.72a15.61,15.61,0,0,0,3.93-8.17l3.95.6A19.55,19.55,0,0,1,497.06,305.66Z"/><path class="cls-6" d="M456.61,290.48a11,11,0,0,1,1.75-9.44l3.21,2.39a7,7,0,0,0-1.11,6Z"/><polygon class="cls-1" points="176.71 222.43 126.22 150.31 105.57 151.28 167.53 242.94 176.71 222.43"/></svg>