<?xml version="1.0" encoding="utf-8"?>
<!-- Generator: Adobe Illustrator 22.1.0, SVG Export Plug-In . SVG Version: 6.00 Build 0)  -->
<svg version="1.1" id="Layer_1" xmlns="http://www.w3.org/2000/svg" xmlns:xlink="http://www.w3.org/1999/xlink" x="0px" y="0px"
	 viewBox="0 0 337.5 144.2" style="enable-background:new 0 0 337.5 144.2;" xml:space="preserve">
<style type="text/css">
	.st0{fill:#FFFBF9;}
</style>
<title>Asset 1</title>
<g id="Layer_2_1_">
	<g id="Layer_1-2">
		<path class="st0" d="M137.2,35.8l3.8-5.2l6.1,1.7l0.5,2.4c0,0,13.8,7.8,20.2,9.2c9,1.9,22.3,1.1,22.3,1.1l22.4-9.4l4.3-7l-5.7-5.3
			c-2.7-3.6-6.1-19.9-6.1-19.9l2.2-0.8l0.1-2.5l2.3-0.4c0,0,12.3,6.9,15.4,13.1c0.8,1.7,3,7.9,2.6,10.9l-2,4.7l13.3,6.3l4,6
			c0,0-1.9,4.8-4.9,7.3s-10.8,5.5-10.8,5.5l0.3,2.8c0,0,9.6-1.6,14.1-1.4c2.7,0.1,5.3,0.5,7.9,1.3l3.6,5.3c0,0-0.4,1.8-4.3,2.5
			l-4.8-1.8c-2.4-0.9-14.4-0.4-14.4-0.4l-10.8,3.4c0,0-7.9-1-13.1-1.3c-3,2.3-6.1,4.2-9.5,5.8c-4.5,1.9-11.9,3.9-23.4,3.1
			s-31.3-10.2-31.3-10.2s-3.4,2.9-5.6,3.5c-5.1,1.3-13.9-0.7-13.9-0.7s-11.7-7.7-14.7-9s-15.1-0.2-15.1-0.2l-12.6,4.4l-3.1-3
			c0,0,11.9-9.5,12.6-9.5s10.9,0.2,16.4-0.7l7.9-1.8l5.2,4.5c0,0,12.8-11.6,14.2-12.5C134.2,36.9,135.6,36.2,137.2,35.8z"/>
		<polygon class="st0" points="45.6,112.4 46.7,114.1 38.1,138.3 31.2,112.4 24.4,112.4 24.1,112.4 22.7,112.4 23.7,114.1 
			16.8,138.3 7.1,112.4 0,112.4 12,144.2 20.5,144.2 19.5,142.4 26.1,119.6 33.3,144.2 41.9,144.2 40.8,142.4 51.4,112.4 		"/>
		<polygon class="st0" points="83.1,112.4 74.3,112.4 75.4,114.2 75.4,126.4 63.8,126.4 63.8,114.2 64.9,112.4 56.1,112.4 
			57.2,114.2 57.2,142.4 56.1,144.2 64.9,144.2 63.8,142.4 63.8,130.2 75.4,130.2 75.4,142.4 74.3,144.2 83.1,144.2 82,142.4 
			82,114.2 		"/>
		<polygon class="st0" points="99.3,112.4 90.6,112.4 91.7,114.2 91.7,142.4 90.6,144.2 99.3,144.2 98.2,142.4 98.2,114.2 		"/>
		<polygon class="st0" points="104,116.3 113.1,116.3 113.1,142.4 112,144.2 120.8,144.2 119.7,142.4 119.7,116.3 124.8,116.3 
			128.7,112.4 107.8,112.4 		"/>
		<polygon class="st0" points="148.6,116.3 152.4,112.4 133.3,112.4 134.4,114.2 134.4,142.4 133.3,144.2 148.6,144.2 152.4,140.3 
			140.9,140.3 140.9,130.3 148.6,130.3 152.4,126.4 140.9,126.4 140.9,116.3 		"/>
		<path class="st0" d="M196.2,127.4c1.3-1.1,2-3.2,2-5.5s-0.7-4.5-2.1-6.3c-1.4-2-5-3.8-8.7-3.8h-12.5l1.1,1.8v28.8l-1.1,1.8h8.8
			l-1.1-1.8v-11.2l2.3,0.5l6.9,12.4h7.5l-7.9-14.1L196.2,127.4z M188.8,128.7c-2.3-0.1-4.6-1-6.2-2.7v-12.2c4.9,0,8.8,3.9,9,8.8
			c0.1,2-0.4,4.1-1.2,5.9C189.8,128.6,189.3,128.7,188.8,128.7L188.8,128.7z"/>
		<path class="st0" d="M213.3,112.4l1.1,1.8l-10.6,30h4.1l3.9-11h10.8l4.1,11h7.2l-12-31.8L213.3,112.4z M213.2,129.3l3.9-10.9
			l4.1,10.9H213.2z"/>
		<path class="st0" d="M256.4,126.1l4-2.2c0.8-1.3,1.2-2.8,1.2-4.3c0-1.7-0.6-3.4-1.7-4.7c-2-2.5-5.2-3.2-8.5-3.2l-12.6,0.2l1.1,1.8
			v28.6l-1.1,1.8h13.5l9.7-5c0.8-1.3,1.3-2.9,1.2-4.4c0-1.4-0.3-2.7-1-3.9C260.8,128.7,258.8,127.1,256.4,126.1z M253.5,116.2
			c1.2,1.3,1.9,3,1.9,4.7s-0.6,3.4-1.8,4.6c-0.7-0.1-1.5-0.1-2.2-0.1l-4.9,2.4v-14C249,113.7,251.6,114.5,253.5,116.2z M254.5,141
			c-1.1,0.2-2.2,0.3-3.3,0.3c-1.6,0-3.2-0.2-4.9-0.4v-12.8h0.1c2.4,0.1,4.8,0.9,6.8,2.3c1.9,1.4,3,3.6,3,6
			C256.4,138.1,255.7,139.8,254.5,141L254.5,141z"/>
		<path class="st0" d="M286.7,126.1l4-2.2c0.8-1.3,1.2-2.8,1.2-4.3c0-1.7-0.6-3.4-1.7-4.7c-2-2.5-5.2-3.2-8.5-3.2L269,112l1.1,1.8
			v28.6l-1.1,1.8h13.5l9.7-5c0.8-1.3,1.3-2.9,1.2-4.4c0-1.4-0.3-2.7-1-3.9C291.1,128.7,289,127.1,286.7,126.1z M283.8,116.2
			c1.2,1.3,1.9,3,1.9,4.7s-0.6,3.4-1.8,4.6c-0.7-0.1-1.5-0.1-2.2-0.1l-5,2.4v-14C279.3,113.6,281.8,114.5,283.8,116.2z M284.8,141
			c-1.1,0.2-2.2,0.3-3.3,0.3c-1.6,0-3.3-0.2-4.9-0.4v-12.8h0.1c2.4,0.1,4.8,0.9,6.8,2.3c1.9,1.4,3,3.6,3,6
			C286.6,138.1,286,139.8,284.8,141L284.8,141z"/>
		<polygon class="st0" points="308.3,112.4 299.5,112.4 300.6,114.2 300.6,142.4 299.5,144.2 308.3,144.2 307.2,142.4 307.2,114.2 
					"/>
		<polygon class="st0" points="333.6,116.3 337.5,112.4 316.6,112.4 312.8,116.3 321.9,116.3 321.9,142.4 320.8,144.2 329.6,144.2 
			328.5,142.4 328.5,116.3 		"/>
	</g>
</g>
</svg>
